<svg width="24" height="24" viewBox="0 0 24 24" fill="none" xmlns="http://www.w3.org/2000/svg">
<path d="M16.6739 13.4209C16.8917 12.9236 17.0021 12.3968 17 11.8658C17 10.687 16.4518 9.55637 15.4762 8.72279C14.5005 7.8892 13.1772 7.4209 11.7974 7.4209C11.1836 7.42151 10.5749 7.51587 10 7.69952L11.221 8.77511C11.4066 8.74974 11.5943 8.73674 11.7822 8.73623C12.7578 8.73449 13.6946 9.06263 14.3881 9.64899C15.0815 10.2354 15.4752 11.0323 15.4832 11.8658C15.4826 12.0264 15.4673 12.1867 15.4377 12.3453L16.6739 13.4209Z" fill="#3377FF"/>
<path d="M22.7963 11.5005C20.4286 7.08993 16.2763 4.4209 11.6815 4.4209C10.4305 4.42386 9.18782 4.62698 8 5.02267L9.13115 6.16957C9.9643 5.9526 10.821 5.84083 11.6815 5.83683C15.637 5.83683 19.2342 8.05984 21.377 11.805C20.591 13.1944 19.5489 14.4199 18.3068 15.4156L19.3044 16.4209C20.742 15.2523 21.9359 13.8086 22.8173 12.1731L23 11.8333L22.7963 11.5005Z" fill="#3377FF"/>
<path d="M1.81391 3.45035L5.06291 6.53181C3.00928 7.78588 1.33086 9.52052 0.189404 11.5685L0 11.8933L0.189404 12.2249C2.64437 16.5293 6.94967 19.134 11.7139 19.134C13.5735 19.1336 15.4089 18.7345 17.0828 17.9664L20.7252 21.4209L22 20.3845L3.0596 2.4209L1.81391 3.45035ZM8.91656 10.1867L13.7609 14.7813C13.2136 15.1026 12.5835 15.2747 11.9397 15.2787C11.472 15.2787 11.0089 15.191 10.577 15.0206C10.1452 14.8502 9.75311 14.6005 9.42339 14.2859C9.09367 13.9713 8.8328 13.5979 8.6558 13.1873C8.47881 12.7766 8.38917 12.3369 8.39205 11.8933C8.40026 11.2898 8.58158 10.6998 8.91656 10.1867ZM7.86026 9.1849C7.17873 10.0965 6.85928 11.2074 6.95849 12.3209C7.0577 13.4345 7.56917 14.4788 8.40233 15.269C9.23549 16.0592 10.3366 16.5443 11.5107 16.6383C12.6848 16.7324 13.8561 16.4295 14.8172 15.7831L15.9828 16.8885C14.6335 17.4356 13.1813 17.7176 11.7139 17.7176C7.61258 17.7176 3.88278 15.5482 1.66093 11.8933C2.7272 10.1026 4.26285 8.60329 6.1192 7.54053L7.86026 9.1849Z" fill="#3377FF"/>
</svg>
